<svg width="884" height="589" viewBox="0 0 884 589" fill="none" xmlns="http://www.w3.org/2000/svg">
<path d="M567.263 438.421C567.263 509.579 509.579 567.263 438.421 567.263C367.264 567.263 309.579 509.579 309.579 438.421C309.579 367.264 367.264 309.579 438.421 309.579C509.579 309.579 567.263 367.264 567.263 438.421ZM438.421 570.842C511.555 570.842 570.842 511.555 570.842 438.421C570.842 365.287 511.555 306 438.421 306C365.287 306 306 365.287 306 438.421C306 511.555 365.287 570.842 438.421 570.842ZM646 438.421C646 553.064 553.064 646 438.421 646C323.778 646 230.842 553.064 230.842 438.421C230.842 323.778 323.778 230.842 438.421 230.842C553.064 230.842 646 323.778 646 438.421ZM438.421 649.579C555.04 649.579 649.579 555.04 649.579 438.421C649.579 321.802 555.04 227.263 438.421 227.263C321.802 227.263 227.263 321.802 227.263 438.421C227.263 555.04 321.802 649.579 438.421 649.579ZM726.526 438.421C726.526 597.537 597.537 726.526 438.421 726.526C279.305 726.526 150.316 597.537 150.316 438.421C150.316 279.305 279.305 150.316 438.421 150.316C597.537 150.316 726.526 279.305 726.526 438.421ZM438.421 730.105C599.514 730.105 730.105 599.514 730.105 438.421C730.105 277.328 599.514 146.737 438.421 146.737C277.328 146.737 146.737 277.328 146.737 438.421C146.737 599.514 277.328 730.105 438.421 730.105ZM801.684 438.421C801.684 639.046 639.046 801.684 438.421 801.684C237.796 801.684 75.1579 639.046 75.1579 438.421C75.1579 237.796 237.796 75.1579 438.421 75.1579C639.046 75.1579 801.684 237.796 801.684 438.421ZM438.421 805.263C641.022 805.263 805.263 641.022 805.263 438.421C805.263 235.82 641.022 71.5789 438.421 71.5789C235.82 71.5789 71.5789 235.82 71.5789 438.421C71.5789 641.022 235.82 805.263 438.421 805.263ZM882.211 442C882.211 685.122 685.122 882.211 442 882.211C198.878 882.211 1.78947 685.122 1.78947 442C1.78947 198.878 198.878 1.78947 442 1.78947C685.122 1.78947 882.211 198.878 882.211 442Z" stroke="white" stroke-opacity="0.05" stroke-width="3.57895"/>
</svg>
