<svg width="64" height="64" viewBox="0 0 64 64" fill="none" xmlns="http://www.w3.org/2000/svg">
<g id="icon-box">
<rect id="Rectangle" width="64" height="64" rx="7" fill="#F4F5FF"/>
<g id="icon">
<path id="Vector" d="M31.7677 14C19.4082 14.0005 13.9238 30.1361 24.3855 37.2298V38.9492C23.0236 40.1074 22.8677 42.3202 24.074 43.6564C22.198 45.7833 23.7448 49.2186 26.6067 49.2073H26.6509C27.7726 54.9 35.765 54.8959 36.8844 49.2073H36.9286C39.7919 49.2182 41.3366 45.7824 39.4613 43.6564C40.6679 42.3197 40.5113 40.107 39.1498 38.9492V37.2299C49.6155 30.1324 44.121 13.9985 31.7677 14ZM36.9286 40.4226C38.3054 40.4797 38.3044 42.4412 36.9286 42.4978H26.6067C25.2298 42.4406 25.2309 40.4793 26.6067 40.4226H36.9286ZM31.7677 51.1814C30.496 51.1814 29.415 50.3527 29.0342 49.2073H34.5011C34.1204 50.3527 33.0392 51.1814 31.7677 51.1814ZM36.9286 46.8901C35.2065 46.89 28.2897 46.89 26.6067 46.8901C25.2329 46.8344 25.228 44.8729 26.6067 44.815H36.9286C38.3022 44.8706 38.3074 46.8322 36.9286 46.8901ZM37.3775 35.6218C37.0385 35.8334 36.8326 36.2049 36.8326 36.6045V38.1054H35.043V32.9592L37.5357 30.5038C37.9916 30.0548 37.9971 29.3212 37.5481 28.8654C37.099 28.4095 36.3654 28.404 35.9097 28.8531L33.0714 31.6488C32.8504 31.8665 32.7259 32.1638 32.7259 32.4742V38.1054H30.8013V32.4742C30.8013 32.1669 30.6792 31.8722 30.4619 31.655L27.6662 28.8592C27.2138 28.4068 26.4802 28.4068 26.0277 28.8592C25.5752 29.3117 25.5752 30.0452 26.0277 30.4977L28.4841 32.9541V38.1055H26.7027V36.6046C26.7027 36.205 26.4967 35.8335 26.1578 35.6219C16.9952 30.0709 21.4078 16.3277 31.7678 16.3172C42.1279 16.3281 46.54 30.0721 37.3775 35.6218Z" fill="#4759F9"/>
<path id="Vector_2" d="M47.2145 22.5381C47.3772 22.5381 47.5428 22.5037 47.7002 22.4308L49.8911 21.4172C50.4719 21.1486 50.7249 20.46 50.4562 19.8793C50.1876 19.2986 49.499 19.0454 48.9183 19.3142L46.7274 20.3277C45.6022 20.8672 45.9865 22.5275 47.2145 22.5381Z" fill="#4759F9"/>
<path id="Vector_3" d="M50.3816 25.1182H47.9634C46.4262 25.1794 46.4273 27.3747 47.9634 27.4353H50.3816C51.9188 27.3742 51.9176 25.1788 50.3816 25.1182Z" fill="#4759F9"/>
<path id="Vector_4" d="M49.8567 31.1354L47.6658 30.1219C46.245 29.5319 45.3243 31.525 46.6929 32.225L48.8838 33.2385C49.4511 33.5048 50.1524 33.26 50.4218 32.6734C50.6905 32.0926 50.4375 31.4041 49.8567 31.1354Z" fill="#4759F9"/>
<path id="Vector_5" d="M15.8345 30.122L13.6435 31.1355C13.0628 31.4042 12.8098 32.0927 13.0784 32.6735C13.3478 33.2602 14.049 33.5049 14.6164 33.2386L16.8074 32.225C17.3881 31.9564 17.6411 31.2678 17.3725 30.6871C17.1038 30.1063 16.4152 29.8534 15.8345 30.122Z" fill="#4759F9"/>
<path id="Vector_6" d="M15.5706 27.4353C17.1078 27.3741 17.1067 25.1788 15.5706 25.1182H13.1524C11.6152 25.1794 11.6164 27.3747 13.1524 27.4353H15.5706Z" fill="#4759F9"/>
<path id="Vector_7" d="M16.8419 20.3282L14.6509 19.3146C14.0702 19.0459 13.3816 19.299 13.113 19.8797C12.8442 20.4605 13.0973 21.1491 13.678 21.4177L15.869 22.4312C16.4362 22.6975 17.1376 22.4527 17.4069 21.8661C17.6756 21.2853 17.4226 20.5968 16.8419 20.3282Z" fill="#4759F9"/>
</g>
</g>
</svg>
