<svg width="40" height="40" viewBox="0 0 40 40" fill="none" xmlns="http://www.w3.org/2000/svg">
<path d="M19.7677 1.10924e-07C7.40818 0.000463545 1.92375 16.1361 12.3855 23.2298V24.9492C11.0236 26.1074 10.8677 28.3202 12.074 29.6564C10.198 31.7833 11.7448 35.2186 14.6067 35.2073H14.6509C15.7726 40.9 23.765 40.8959 24.8844 35.2073H24.9286C27.7919 35.2182 29.3366 31.7824 27.4613 29.6564C28.6679 28.3197 28.5113 26.107 27.1498 24.9492V23.2299C37.6155 16.1324 32.121 -0.00154467 19.7677 1.10924e-07ZM24.9286 26.4226C26.3054 26.4797 26.3044 28.4412 24.9286 28.4978H14.6067C13.2298 28.4406 13.2309 26.4793 14.6067 26.4226H24.9286ZM19.7677 37.1814C18.496 37.1814 17.415 36.3527 17.0342 35.2073H22.5011C22.1204 36.3527 21.0392 37.1814 19.7677 37.1814ZM24.9286 32.8901C23.2065 32.89 16.2897 32.89 14.6067 32.8901C13.2329 32.8344 13.228 30.8729 14.6067 30.815H24.9286C26.3022 30.8706 26.3074 32.8322 24.9286 32.8901ZM25.3775 21.6218C25.0385 21.8334 24.8326 22.2049 24.8326 22.6045V24.1054H23.043V18.9592L25.5357 16.5038C25.9916 16.0548 25.9971 15.3212 25.5481 14.8654C25.099 14.4095 24.3654 14.404 23.9097 14.8531L21.0714 17.6488C20.8504 17.8665 20.7259 18.1638 20.7259 18.4742V24.1054H18.8013V18.4742C18.8013 18.1669 18.6792 17.8722 18.4619 17.655L15.6662 14.8592C15.2138 14.4068 14.4802 14.4068 14.0277 14.8592C13.5752 15.3117 13.5752 16.0452 14.0277 16.4977L16.4841 18.9541V24.1055H14.7027V22.6046C14.7027 22.205 14.4967 21.8335 14.1578 21.6219C4.99524 16.0709 9.40782 2.32767 19.7678 2.31717C30.1279 2.32814 34.54 16.0721 25.3775 21.6218Z" fill="#4759F9"/>
<path d="M35.2145 8.53814C35.3772 8.53814 35.5428 8.50369 35.7002 8.43077L37.8911 7.41724C38.4719 7.14861 38.7249 6.46002 38.4562 5.87926C38.1876 5.29858 37.499 5.04539 36.9183 5.31418L34.7274 6.32771C33.6022 6.86722 33.9865 8.52748 35.2145 8.53814Z" fill="#4759F9"/>
<path d="M38.3816 11.1182H35.9634C34.4262 11.1794 34.4273 13.3747 35.9634 13.4353H38.3816C39.9188 13.3742 39.9176 11.1788 38.3816 11.1182Z" fill="#4759F9"/>
<path d="M37.8567 17.1354L35.6658 16.1219C34.245 15.5319 33.3243 17.525 34.6929 18.225L36.8838 19.2385C37.4511 19.5048 38.1524 19.26 38.4218 18.6734C38.6905 18.0926 38.4375 17.4041 37.8567 17.1354Z" fill="#4759F9"/>
<path d="M3.83448 16.122L1.64352 17.1355C1.06276 17.4042 0.809802 18.0927 1.07844 18.6735C1.34777 19.2602 2.04902 19.5049 2.61642 19.2386L4.80738 18.225C5.38814 17.9564 5.6411 17.2678 5.37246 16.6871C5.10383 16.1063 4.41524 15.8534 3.83448 16.122Z" fill="#4759F9"/>
<path d="M3.57064 13.4353C5.10785 13.3741 5.10669 11.1788 3.57064 11.1182H1.15244C-0.384767 11.1794 -0.383609 13.3747 1.15244 13.4353H3.57064Z" fill="#4759F9"/>
<path d="M4.8419 6.32817L2.65094 5.31464C2.07018 5.04592 1.38159 5.29903 1.11296 5.87972C0.844243 6.46048 1.09728 7.14906 1.67804 7.4177L3.869 8.43123C4.43624 8.69755 5.13765 8.4527 5.4069 7.86615C5.67562 7.28531 5.42258 6.5968 4.8419 6.32817Z" fill="#4759F9"/>
</svg>
