<svg width="1280" height="338" viewBox="0 0 1280 338" fill="none" xmlns="http://www.w3.org/2000/svg">
<mask id="mask0_2_409" style="mask-type:alpha" maskUnits="userSpaceOnUse" x="0" y="0" width="1280" height="338">
<rect y="0.323242" width="1280" height="337" rx="10" fill="#FEAE37"/>
</mask>
<g mask="url(#mask0_2_409)">
<g opacity="0.05">
<path d="M1220.58 275.351C1220.58 275.351 1208.45 150.815 1161.06 105.658C1098.61 46.1388 1028.18 145.156 955.12 105.658C900.478 76.1164 811.041 -47.2774 811.041 -47.2774" stroke="#EFFBF7" stroke-width="4"/>
<path d="M200.752 -47.2744C200.752 -47.2744 194.807 10.0271 171.579 30.8051C140.964 58.1912 106.439 12.631 70.6259 30.8051C43.8407 44.3979 -0.000624118 101.174 -0.000624118 101.174" stroke="#EFFBF7" stroke-width="4"/>
<path d="M926.4 272.777C926.4 272.777 799.959 235.379 805.421 147.686C808.01 106.121 842.92 95.5188 847.177 54.1631C858.146 -52.3856 710.499 143.974 628.357 108.099C560.947 78.6591 497.466 -49.7508 497.466 -49.7508" stroke="#EFFBF7" stroke-width="4"/>
<path d="M727.527 272.381C727.527 272.381 625.373 73.2543 540.827 109.088C505.397 124.104 501.692 168.715 466.147 183.312C389.533 214.774 368.507 48.5846 287.879 54.1616C190.574 60.8921 112.019 272.381 112.019 272.381" stroke="#EFFBF7" stroke-width="4"/>
<path d="M721.104 384.213C721.104 384.213 618.949 185.086 534.403 220.92C498.973 235.936 495.269 280.547 459.723 295.144C383.109 326.606 362.084 160.417 281.455 165.994C184.15 172.724 105.595 384.213 105.595 384.213" stroke="#EFFBF7" stroke-width="4"/>
<path d="M1280 -51.2344C1280 -51.2344 1223.76 57.9682 1177.21 38.317C1157.71 30.0819 1155.67 5.61675 1136.1 -2.38818C1093.92 -19.6421 1082.34 71.4973 1037.95 68.4388C984.378 64.7478 941.129 -51.2343 941.129 -51.2343" stroke="#EFFBF7" stroke-width="4"/>
<path d="M1275.18 -111.604C1275.18 -111.604 1218.94 -2.40194 1172.39 -22.0532C1152.89 -30.2882 1150.85 -54.7534 1131.28 -62.7583C1089.1 -80.0122 1077.52 11.1271 1033.13 8.06867C979.561 4.37763 936.312 -111.604 936.312 -111.604" stroke="#EFFBF7" stroke-width="4"/>
</g>
</g>
</svg>
