<svg width="24" height="25" viewBox="0 0 24 25" fill="none" xmlns="http://www.w3.org/2000/svg">
<g id="icon-plus">
<path id="Vector" d="M12.9954 11.0624L13.002 4.99381C13.002 4.72775 12.8963 4.47257 12.7081 4.28442C12.52 4.09627 12.2648 3.99056 11.9988 3.99054C11.7327 3.99052 11.4775 4.0962 11.2894 4.28432C11.1013 4.47244 10.9956 4.7276 10.9956 4.99366L11.0031 11.0623L4.93451 11.0548C4.66845 11.0548 4.41329 11.1604 4.22517 11.3486C4.03705 11.5367 3.93137 11.7918 3.93139 12.0579C3.93141 12.324 4.03712 12.5791 4.22527 12.7673C4.41342 12.9554 4.66859 13.0612 4.93466 13.0612L11.0033 13.0545L10.9966 19.1232C10.9961 19.255 11.0217 19.3857 11.0719 19.5077C11.1222 19.6297 11.196 19.7405 11.2893 19.8337C11.3826 19.927 11.4934 20.0009 11.6154 20.0511C11.7373 20.1014 11.868 20.1269 11.9999 20.1264C12.1318 20.127 12.2625 20.1014 12.3844 20.0512C12.5064 20.001 12.6172 19.9271 12.7105 19.8338C12.8037 19.7406 12.8776 19.6298 12.9278 19.5078C12.978 19.3859 13.0036 19.2552 13.003 19.1233L12.9955 13.0547L19.0641 13.0622C19.196 13.0627 19.3267 13.0372 19.4487 12.9869C19.5706 12.9367 19.6814 12.8629 19.7747 12.7696C19.8679 12.6763 19.9418 12.5655 19.992 12.4436C20.0422 12.3216 20.0678 12.1909 20.0673 12.0591C20.0678 11.9272 20.0422 11.7965 19.992 11.6745C19.9417 11.5525 19.8679 11.4417 19.7746 11.3485C19.6813 11.2552 19.5705 11.1813 19.4486 11.1311C19.3266 11.0808 19.1959 11.0553 19.064 11.0558L12.9954 11.0624Z" fill="#1D1E25"/>
</g>
</svg>
