<svg width="24" height="25" viewBox="0 0 24 25" fill="none" xmlns="http://www.w3.org/2000/svg">
<g id="icon-instagram">
<g id="Group">
<g id="Vector">
<path fill-rule="evenodd" clip-rule="evenodd" d="M6.08577 24.2384C4.65848 24.1735 3.88314 23.9359 3.36743 23.7348C2.6841 23.4687 2.19693 23.152 1.68407 22.6399C1.17122 22.1277 0.853806 21.6406 0.589176 20.9572C0.388029 20.4415 0.150504 19.6662 0.0855946 18.2389C0.0142658 16.6961 0 16.2331 0 12.3243C0 8.41549 0.0156923 7.95328 0.0848813 6.40902C0.14979 4.98173 0.388742 4.20781 0.588463 3.69067C0.854519 3.00734 1.17193 2.52017 1.68336 2.0066C2.1955 1.49446 2.68268 1.17633 3.36672 0.911705C3.88243 0.710558 4.65777 0.473033 6.08506 0.408123C7.62861 0.337508 8.09225 0.323242 11.9996 0.323242C15.9085 0.323242 16.3707 0.338935 17.9149 0.408123C19.3422 0.473033 20.1161 0.711984 20.6333 0.911705C21.3166 1.17633 21.8038 1.49446 22.3166 2.0066C22.8295 2.51874 23.1455 3.00663 23.4115 3.68996C23.6127 4.20567 23.8502 4.98101 23.9151 6.4083C23.9857 7.95257 24 8.41478 24 12.3236C24 16.231 23.9857 16.6946 23.9151 18.2389C23.8502 19.6662 23.6113 20.4415 23.4115 20.9572C23.1455 21.6406 22.8288 22.1277 22.3166 22.6399C21.8045 23.152 21.3166 23.4687 20.6333 23.7348C20.1176 23.9359 19.3422 24.1735 17.9149 24.2384C16.3721 24.309 15.9085 24.3232 11.9996 24.3232C8.09225 24.3232 7.62861 24.3097 6.08577 24.2384ZM18.4505 5.45119C18.2572 5.16173 18.1541 4.82146 18.1543 4.47341C18.1547 4.00688 18.3402 3.55959 18.6702 3.22977C19.0001 2.89995 19.4475 2.71457 19.914 2.71436H19.9147C20.2628 2.71449 20.603 2.81784 20.8923 3.01132C21.1816 3.2048 21.407 3.47973 21.5401 3.80133C21.6732 4.12294 21.7079 4.47678 21.6398 4.81811C21.5718 5.15945 21.4041 5.47294 21.1579 5.71895C20.9117 5.96495 20.598 6.13243 20.2566 6.20019C19.9153 6.26795 19.5614 6.23297 19.2399 6.09965C18.9184 5.96632 18.6437 5.74066 18.4505 5.45119ZM5.36842 12.2969C5.36842 8.56218 8.38379 5.53377 12.1045 5.53377C15.8251 5.53377 18.8421 8.56218 18.8421 12.2969C18.8421 16.0317 15.8251 19.0601 12.1045 19.0601C8.38379 19.0601 5.36842 16.0317 5.36842 12.2969Z" fill="white"/>
<path d="M12.098 7.4135C9.39837 7.4135 7.21053 9.60252 7.21053 12.3021C7.21053 15.0017 9.39837 17.1907 12.098 17.1907C14.7975 17.1907 16.9866 15.0017 16.9866 12.3021C16.9866 9.60252 14.7975 7.4135 12.098 7.4135Z" fill="white"/>
</g>
</g>
</g>
</svg>
