<svg width="40" height="40" viewBox="0 0 40 40" fill="none" xmlns="http://www.w3.org/2000/svg">
<path d="M34.7156 4.78188C28.6106 -1.59379 17.6261 -1.59418 11.5215 4.78203C6.26147 9.87482 5.20409 18.55 8.99594 24.7654L1.17586 32.6024C-0.391953 34.1737 -0.391953 36.7304 1.17586 38.3016C2.67422 39.8666 5.37149 39.8666 6.86977 38.3016L11.9524 33.2079L14.6655 30.489C20.8798 34.36 29.6043 33.3221 34.7155 28.019C41.076 21.9031 41.0763 10.8979 34.7156 4.78188ZM5.2308 36.6662C4.59456 37.3307 3.45098 37.3306 2.81467 36.6662C2.14657 35.9967 2.14657 34.9073 2.81467 34.2378L7.07968 29.9635L9.49928 32.3884L5.2308 36.6662ZM11.1348 30.7495L8.71518 28.3246L10.3378 26.6985C11.0481 27.5825 11.8706 28.4133 12.7484 29.1324L11.1348 30.7495ZM33.0766 26.3837C28.4848 31.1605 20.5119 31.8721 15.148 28.0432C15.146 28.0419 15.1441 28.0404 15.1421 28.0391C3.84288 20.1491 9.32648 2.35487 23.1186 2.28333C35.5829 2.23641 41.897 17.5908 33.0766 26.3837Z" fill="#4759F9"/>
<path d="M34.4958 16.3955C34.4136 9.93489 29.2575 5.00703 23.1183 5.0149C16.4397 5.02671 11.5626 10.6178 11.7652 16.7143C11.9367 23.0282 17.1426 27.8048 23.1183 27.7857C29.7143 27.7551 34.4358 22.4319 34.4958 16.3955ZM29.5154 22.8147C28.0809 24.2522 26.2497 25.1473 24.2694 25.3978L24.2736 21.5497C24.2743 20.9104 23.7566 20.3915 23.1172 20.3908H23.1159C22.4772 20.3908 21.959 20.9083 21.9583 21.5472L21.9541 25.396C17.9884 24.9752 14.5631 21.4771 14.1506 17.5751L17.9607 17.571C19.4958 17.5083 19.4934 15.3162 17.9595 15.2557H17.9582L14.1459 15.2598C14.5452 11.3369 17.987 7.81574 21.9735 7.40177L21.9693 11.2658C21.9686 11.9051 22.4863 12.4239 23.1257 12.4246H23.127C23.7657 12.4246 24.2839 11.9072 24.2846 11.2682L24.2888 7.40525C28.2573 7.82894 31.682 11.3349 32.0881 15.2404L28.2608 15.2445C26.7257 15.3071 26.7281 17.4993 28.2621 17.5597H28.2634L32.0887 17.5556C31.8442 19.4799 30.9868 21.3401 29.5154 22.8147Z" fill="#4759F9"/>
<path d="M23.1225 15.2527C21.5908 15.3145 21.586 17.5043 23.12 17.564C24.6515 17.5023 24.6564 15.3124 23.1225 15.2527Z" fill="#4759F9"/>
</svg>
