<svg width="64" height="64" viewBox="0 0 64 64" fill="none" xmlns="http://www.w3.org/2000/svg">
<g id="Frame">
<rect id="Rectangle" width="64" height="64" rx="7" fill="#F4F5FF"/>
<g id="icon">
<path id="Vector" d="M46.7156 16.7819C40.6106 10.4062 29.6261 10.4058 23.5215 16.782C18.2615 21.8748 17.2041 30.55 20.9959 36.7654L13.1759 44.6024C11.608 46.1737 11.608 48.7304 13.1759 50.3016C14.6742 51.8666 17.3715 51.8666 18.8698 50.3016L23.9524 45.2079L26.6655 42.489C32.8798 46.36 41.6043 45.3221 46.7155 40.019C53.076 33.9031 53.0763 22.8979 46.7156 16.7819ZM17.2308 48.6662C16.5946 49.3307 15.451 49.3306 14.8147 48.6662C14.1466 47.9967 14.1466 46.9073 14.8147 46.2378L19.0797 41.9635L21.4993 44.3884L17.2308 48.6662ZM23.1348 42.7495L20.7152 40.3246L22.3378 38.6985C23.0481 39.5825 23.8706 40.4133 24.7484 41.1324L23.1348 42.7495ZM45.0766 38.3837C40.4848 43.1605 32.5119 43.8721 27.148 40.0432C27.146 40.0419 27.1441 40.0404 27.1421 40.0391C15.8429 32.1491 21.3265 14.3549 35.1186 14.2833C47.5829 14.2364 53.897 29.5908 45.0766 38.3837Z" fill="#4759F9"/>
<path id="Vector_2" d="M46.4958 28.3955C46.4136 21.9349 41.2575 17.007 35.1183 17.0149C28.4397 17.0267 23.5626 22.6178 23.7652 28.7143C23.9367 35.0282 29.1426 39.8048 35.1183 39.7857C41.7143 39.7551 46.4358 34.4319 46.4958 28.3955ZM41.5154 34.8147C40.0809 36.2522 38.2497 37.1473 36.2694 37.3978L36.2736 33.5497C36.2743 32.9104 35.7566 32.3915 35.1172 32.3908H35.1159C34.4772 32.3908 33.959 32.9083 33.9583 33.5472L33.9541 37.396C29.9884 36.9752 26.5631 33.4771 26.1506 29.5751L29.9607 29.571C31.4958 29.5083 31.4934 27.3162 29.9595 27.2557H29.9582L26.1459 27.2598C26.5452 23.3369 29.987 19.8157 33.9735 19.4018L33.9693 23.2658C33.9686 23.9051 34.4863 24.4239 35.1257 24.4246H35.127C35.7657 24.4246 36.2839 23.9072 36.2846 23.2682L36.2888 19.4052C40.2573 19.8289 43.682 23.3349 44.0881 27.2404L40.2608 27.2445C38.7257 27.3071 38.7281 29.4993 40.2621 29.5597H40.2634L44.0887 29.5556C43.8442 31.4799 42.9868 33.3401 41.5154 34.8147Z" fill="#4759F9"/>
<path id="Vector_3" d="M35.1225 27.2527C33.5908 27.3145 33.586 29.5043 35.12 29.564C36.6515 29.5023 36.6564 27.3124 35.1225 27.2527Z" fill="#4759F9"/>
</g>
</g>
</svg>
