<svg width="65" height="64" viewBox="0 0 65 64" fill="none" xmlns="http://www.w3.org/2000/svg">
<path d="M55.8558 14.1656L50.2495 14.0664C46.55 14.0042 43.0509 15.745 40.8642 18.6769L55.8558 14.1656ZM55.8558 14.1656C56.4678 14.1763 57.0362 14.4847 57.3789 14.9921L55.8558 14.1656ZM10.3543 13.8643V13.8734L10.3546 13.8825C10.5555 18.7344 17.4996 18.7321 17.6997 13.8825L17.7 13.8734V13.8644C17.7002 11.8386 16.0529 10.1914 14.0272 10.1914C12.0015 10.1914 10.3543 11.8386 10.3543 13.8643ZM50.2421 14.5062L55.848 14.6053L55.8481 14.6053C56.3167 14.6136 56.752 14.8497 57.0144 15.2383C57.2768 15.6267 57.3334 16.1188 57.1662 16.5567L54.1883 24.3544L54.0873 24.6187L54.2861 24.8202C55.5061 26.0567 56.7338 27.7882 57.9469 30.005L58.0517 30.1965L58.2676 30.2289C61.3504 30.6907 63.7222 33.3579 63.7222 36.5668V41.5733C63.7222 44.6478 61.5447 47.2254 58.65 47.8417L58.4093 47.893L58.327 48.1249C57.0647 51.6853 54.7688 54.1606 52.7573 55.758L52.591 55.8901V56.1025V62.1218C52.591 62.9162 51.947 63.5602 51.1527 63.5602H43.6549C42.8606 63.5602 42.2166 62.9162 42.2166 62.1218V60.7284V60.2886H41.7768H28.623C27.9933 60.2886 27.363 60.2598 26.7357 60.2025L26.2559 60.1587V60.6405V62.1218C26.2559 62.9162 25.6119 63.5602 24.8176 63.5602H17.445C16.6507 63.5602 16.0067 62.9162 16.0067 62.1218V56.8944C16.0067 56.3284 15.7693 55.7919 15.3418 55.4305L15.34 55.429C9.64716 50.6674 6.91993 42.9135 8.45807 35.6514L8.57053 35.1205H8.02778H6.54902C5.08854 35.1205 3.89973 33.9317 3.89973 32.4712C3.89973 31.3537 2.99391 30.4449 1.87783 30.4397C-0.0398666 30.3564 -0.0388907 27.6467 1.87712 27.5628C4.37143 27.5673 6.43658 29.4431 6.73852 31.8585L6.78668 32.2438H7.17496H9.18437H9.47891L9.59107 31.9714C10.1987 30.4957 10.9769 29.0809 11.9112 27.7594L12.2983 27.2118L11.6418 27.0749C-4.27277 23.7579 -2.34396 0.921535 14.036 0.441239C23.2449 0.305548 29.9599 10.0441 26.5916 18.5841L26.3329 19.2401L27.0358 19.1839C27.5725 19.141 28.1034 19.1167 28.623 19.1167H40.8642H41.0849L41.2168 18.9398C43.3195 16.1206 46.685 14.4463 50.2421 14.5062ZM3.48009 13.8642V13.8733L3.48047 13.8824C4.05883 27.8525 23.9957 27.8476 24.572 13.8822L24.5724 13.8731V13.8641C24.5724 8.04867 19.8419 3.31805 14.0262 3.31805C8.21072 3.31805 3.48009 8.04867 3.48009 13.8642ZM42.2166 56.9721V54.6179C42.3007 52.7012 45.0099 52.7008 45.0933 54.6177V60.2436V60.6835H45.5331H49.2745H49.7143V60.2436V55.1675C49.7143 54.7038 49.9379 54.2686 50.3149 53.9984C52.2848 52.5867 54.8755 50.0761 55.9246 46.1704L55.4998 46.0563L55.9246 46.1703C56.0934 45.542 56.6631 45.1051 57.3138 45.1051C59.2615 45.1051 60.8455 43.5211 60.8455 41.5733V36.5668C60.8455 34.6188 59.2615 33.0349 57.3137 33.0349H57.163C56.6242 33.0349 56.1306 32.7338 55.8842 32.2548L55.8842 32.2548C54.0294 28.6504 52.4934 26.9592 51.4934 26.1661L51.2201 26.5107L51.4934 26.1661C51.0016 25.7761 50.8195 25.1122 51.0434 24.526L53.5239 18.0312L53.7476 17.4456L53.1208 17.4345L50.1909 17.3826L50.1909 17.3826C47.3086 17.3321 44.5867 18.8322 43.0914 21.3006C42.8308 21.7308 42.3643 21.9937 41.8611 21.9937H28.6232C27.2694 21.9937 25.7928 22.1743 24.4017 22.5048L24.2639 22.5376L24.171 22.6446C22.1842 24.937 19.436 26.5503 16.3259 27.0894L16.1873 27.1134L16.0883 27.2134C8.87243 34.5072 9.29912 46.719 17.2008 53.235C18.269 54.1389 18.8835 55.4713 18.8835 56.8944V60.2436V60.6835H19.3234H22.9395H23.3793V60.2436V58.483L23.3798 58.4761C23.3801 58.4725 23.3803 58.4682 23.3805 58.4633C23.3808 58.4579 23.381 58.4517 23.3811 58.4449H23.3811V58.4398V54.6178C23.4653 52.7012 26.1744 52.7009 26.2578 54.6178V56.8641V57.2578L26.6491 57.3013C27.3032 57.3739 27.963 57.4119 28.623 57.4119H41.7768H42.2166V56.9721ZM14.0272 20.414C10.4191 20.414 7.48246 17.4804 7.47755 13.8734C7.8463 5.17568 20.2093 5.17746 20.5767 13.8734C20.572 17.4804 17.6353 20.414 14.0272 20.414ZM51.8925 33.8283C51.8081 35.7444 49.0999 35.7442 49.0158 33.8283C49.0204 33.0379 49.6625 32.3985 50.4541 32.3985C51.2456 32.3985 51.8879 33.0379 51.8925 33.8283ZM28.878 30.3396C26.9617 30.2555 26.9607 27.5463 28.878 27.4629H38.5302C40.4469 27.5471 40.4472 30.2562 38.5303 30.3396H28.878ZM23.3787 58.4919C23.3786 58.4926 23.3786 58.4926 23.3787 58.4909L23.3787 58.4919Z" fill="#4759F9" stroke="#4759F9" stroke-width="0.879669"/>
</svg>
