<svg width="128" height="128" viewBox="0 0 128 128" fill="none" xmlns="http://www.w3.org/2000/svg">
<g id="IconBox-01">
<rect width="128" height="128" rx="64" fill="#DADEFF"/>
<path id="Vector" d="M87.8558 46.1656L82.2495 46.0664C78.55 46.0042 75.0509 47.745 72.8642 50.6769L87.8558 46.1656ZM87.8558 46.1656C88.4678 46.1763 89.0362 46.4847 89.3789 46.9921L87.8558 46.1656ZM42.3543 45.8643V45.8734L42.3546 45.8825C42.5555 50.7344 49.4996 50.7321 49.6997 45.8825L49.7 45.8734V45.8644C49.7002 43.8386 48.0529 42.1914 46.0272 42.1914C44.0015 42.1914 42.3543 43.8386 42.3543 45.8643ZM82.2421 46.5062L87.848 46.6053L87.8481 46.6053C88.3167 46.6136 88.752 46.8497 89.0144 47.2383C89.2768 47.6267 89.3334 48.1188 89.1662 48.5567L86.1883 56.3544L86.0873 56.6187L86.2861 56.8202C87.5061 58.0567 88.7338 59.7882 89.9469 62.005L90.0517 62.1965L90.2676 62.2289C93.3504 62.6907 95.7222 65.3579 95.7222 68.5668V73.5733C95.7222 76.6478 93.5447 79.2254 90.65 79.8417L90.4093 79.893L90.327 80.1249C89.0647 83.6853 86.7688 86.1606 84.7573 87.758L84.591 87.8901V88.1025V94.1218C84.591 94.9162 83.947 95.5602 83.1527 95.5602H75.6549C74.8606 95.5602 74.2166 94.9162 74.2166 94.1218V92.7284V92.2886H73.7768H60.623C59.9933 92.2886 59.363 92.2598 58.7357 92.2025L58.2559 92.1587V92.6405V94.1218C58.2559 94.9162 57.6119 95.5602 56.8176 95.5602H49.445C48.6507 95.5602 48.0067 94.9162 48.0067 94.1218V88.8944C48.0067 88.3284 47.7693 87.7919 47.3418 87.4305L47.34 87.429C41.6472 82.6674 38.9199 74.9135 40.4581 67.6514L40.5705 67.1205H40.0278H38.549C37.0885 67.1205 35.8997 65.9317 35.8997 64.4712C35.8997 63.3537 34.9939 62.4449 33.8778 62.4397C31.9601 62.3564 31.9611 59.6467 33.8771 59.5628C36.3714 59.5673 38.4366 61.4431 38.7385 63.8585L38.7867 64.2438H39.175H41.1844H41.4789L41.5911 63.9714C42.1987 62.4957 42.9769 61.0809 43.9112 59.7594L44.2983 59.2118L43.6418 59.0749C27.7272 55.7579 29.656 32.9215 46.036 32.4412C55.2449 32.3055 61.9599 42.0441 58.5916 50.5841L58.3329 51.2401L59.0358 51.1839C59.5725 51.141 60.1034 51.1167 60.623 51.1167H72.8642H73.0849L73.2168 50.9398C75.3195 48.1206 78.685 46.4463 82.2421 46.5062ZM35.4801 45.8642V45.8733L35.4805 45.8824C36.0588 59.8525 55.9957 59.8476 56.572 45.8822L56.5724 45.8731V45.8641C56.5724 40.0487 51.8419 35.318 46.0262 35.318C40.2107 35.318 35.4801 40.0487 35.4801 45.8642ZM74.2166 88.9721V86.6179C74.3007 84.7012 77.0099 84.7008 77.0933 86.6177V92.2436V92.6835H77.5331H81.2745H81.7143V92.2436V87.1675C81.7143 86.7038 81.9379 86.2686 82.3149 85.9984C84.2848 84.5867 86.8755 82.0761 87.9246 78.1704L87.4998 78.0563L87.9246 78.1703C88.0934 77.542 88.6631 77.1051 89.3138 77.1051C91.2615 77.1051 92.8455 75.5211 92.8455 73.5733V68.5668C92.8455 66.6188 91.2615 65.0349 89.3137 65.0349H89.163C88.6242 65.0349 88.1306 64.7338 87.8842 64.2548L87.8842 64.2548C86.0294 60.6504 84.4934 58.9592 83.4934 58.1661L83.2201 58.5107L83.4934 58.1661C83.0016 57.7761 82.8195 57.1122 83.0434 56.526L85.5239 50.0312L85.7476 49.4456L85.1208 49.4345L82.1909 49.3826L82.1909 49.3826C79.3086 49.3321 76.5867 50.8322 75.0914 53.3006C74.8308 53.7308 74.3643 53.9937 73.8611 53.9937H60.6232C59.2694 53.9937 57.7928 54.1743 56.4017 54.5048L56.2639 54.5376L56.171 54.6446C54.1842 56.937 51.436 58.5503 48.3259 59.0894L48.1873 59.1134L48.0883 59.2134C40.8724 66.5072 41.2991 78.719 49.2008 85.235C50.269 86.1389 50.8835 87.4713 50.8835 88.8944V92.2436V92.6835H51.3234H54.9395H55.3793V92.2436V90.483L55.3798 90.4761C55.3801 90.4725 55.3803 90.4682 55.3805 90.4633C55.3808 90.4579 55.381 90.4517 55.3811 90.4449H55.3811V90.4398V86.6178C55.4653 84.7012 58.1744 84.7009 58.2578 86.6178V88.8641V89.2578L58.6491 89.3013C59.3032 89.3739 59.963 89.4119 60.623 89.4119H73.7768H74.2166V88.9721ZM46.0272 52.414C42.4191 52.414 39.4825 49.4804 39.4775 45.8734C39.8463 37.1757 52.2093 37.1775 52.5767 45.8734C52.572 49.4804 49.6353 52.414 46.0272 52.414ZM83.8925 65.8283C83.8081 67.7444 81.0999 67.7442 81.0158 65.8283C81.0204 65.0379 81.6625 64.3985 82.4541 64.3985C83.2456 64.3985 83.8879 65.0379 83.8925 65.8283ZM60.878 62.3396C58.9617 62.2555 58.9607 59.5463 60.878 59.4629H70.5302C72.4469 59.5471 72.4472 62.2562 70.5303 62.3396H60.878ZM55.3787 90.4919C55.3786 90.4926 55.3786 90.4926 55.3787 90.4909L55.3787 90.4919Z" fill="#4759F9" stroke="#4759F9" stroke-width="0.879669"/>
</g>
</svg>
