<svg width="64" height="64" viewBox="0 0 64 64" fill="none" xmlns="http://www.w3.org/2000/svg">
<g id="icon-box">
<rect id="Rectangle" width="64" height="64" rx="7" fill="#F4F5FF"/>
<g id="icon">
<path id="Vector" d="M50.3412 20.5081C51.5127 16.3041 51.5144 13.2779 51.5139 13.1512C51.5127 12.8367 51.3833 12.5363 51.1557 12.3193C50.9281 12.1023 50.6221 11.9875 50.3077 12.0011C40.8286 12.3999 31.8358 16.8974 26.0672 24.4602L19.3732 24.1348C19.0477 24.1197 18.7304 24.2415 18.4998 24.472L12.3385 30.6334C12.0394 30.9325 11.9276 31.3712 12.0471 31.7769C12.1665 32.1828 12.4981 32.4909 12.9115 32.5803L20.0455 34.1229C19.0712 35.9578 18.4601 37.2462 18.3902 37.3946C18.1823 37.8357 18.2736 38.3598 18.6184 38.7046L19.1341 39.2204C18.5753 39.4158 18.051 39.7365 17.6051 40.1823C17.2576 40.5297 16.9789 40.9321 16.7762 41.379L12.1922 49.7085C11.9454 50.157 12.023 50.7145 12.3831 51.0785C12.6058 51.3037 12.9036 51.4216 13.2052 51.4216C13.3912 51.4216 13.5788 51.3767 13.7509 51.2845L22.1757 46.7681C22.3066 46.7084 22.4332 46.6427 22.5529 46.5721C22.5652 46.5651 22.5773 46.5578 22.5893 46.5504C22.8709 46.3802 23.1319 46.1758 23.3652 45.9425C23.811 45.4967 24.1316 44.9723 24.3272 44.4135L24.9078 44.9941C25.2701 45.3568 25.8273 45.4352 26.2732 45.1944C26.4249 45.1126 27.6439 44.4541 29.3633 43.473L30.8971 50.5659C31.0778 51.449 32.2109 51.7854 32.8441 51.1388L39.0054 44.9776C39.236 44.747 39.3584 44.4299 39.3426 44.1042L39.0175 37.4174C40.2146 36.5518 41.2549 35.7173 41.9934 34.9787C46.4515 30.4363 48.8005 25.7725 50.3412 20.5081ZM48.0928 19.965C47.8466 20.8402 47.531 21.8141 47.1291 22.8521L40.6311 16.3541C43.336 15.2977 46.1841 14.6395 49.1331 14.3917C49.0277 15.5939 48.7622 17.5856 48.0928 19.965ZM15.472 30.769L19.7724 26.4686L24.4634 26.6966C23.2503 28.4874 22.1361 30.3486 21.2019 32.0079L15.472 30.769ZM22.5479 39.3651L20.8351 37.6524C21.1104 37.0958 21.5361 36.252 22.0767 35.2345L24.3777 37.5354L22.5479 39.3651ZM21.7307 44.308C21.627 44.4116 21.511 44.5021 21.3858 44.5767C21.3838 44.5779 21.3818 44.5791 21.3798 44.5803C21.3239 44.6133 21.2627 44.6445 21.198 44.6731C21.1713 44.685 21.145 44.6978 21.1192 44.7117L16.1001 47.4023L18.8247 42.4515C18.8417 42.4207 18.8573 42.3891 18.8713 42.3569C18.9596 42.1548 19.0835 41.9732 19.2396 41.8171C19.9264 41.1303 21.0438 41.1304 21.7306 41.8171C22.4174 42.5038 22.4174 43.6212 21.7307 44.308ZM25.9298 42.7471L24.1824 40.9997L26.0122 39.1699L28.2727 41.4303C27.2964 41.9884 26.4789 42.444 25.9298 42.7471ZM37.0087 43.705L32.7084 48.0053L31.4649 42.2548C33.1441 41.2658 35.0241 40.1187 36.778 38.9598L37.0087 43.705ZM40.3588 33.3442C38.3998 35.3032 33.9277 38.117 30.3415 40.2302L27.6467 37.5354L31.4448 33.7373C31.8962 33.2859 31.8962 32.5542 31.4448 32.1028C30.9935 31.6514 30.2616 31.6514 29.8103 32.1028L26.0121 35.9009L23.2327 33.1214C23.3342 32.9412 23.4377 32.7589 23.5433 32.5744C25.9321 28.4025 28.2351 25.157 30.2034 23.1888C32.6054 20.7868 35.3469 18.8253 38.3592 17.3512L46.1416 25.1336C44.8666 27.7907 43.0227 30.6802 40.3588 33.3442Z" fill="#4759F9"/>
<path id="Vector_2" d="M40.2816 23.2657C37.2661 20.237 32.0134 22.4116 32.031 26.6833C31.9773 29.2811 34.2662 31.5701 36.8641 31.5163C41.1355 31.534 43.3109 26.2808 40.2816 23.2657ZM38.6471 28.4663C37.7084 29.4444 36.0197 29.4445 35.0811 28.4662C34.1029 27.5277 34.1029 25.8388 35.0811 24.9003C36.0642 23.9172 37.6639 23.9173 38.6471 24.9003C39.6302 25.8834 39.6302 27.4831 38.6471 28.4663Z" fill="#4759F9"/>
</g>
</g>
</svg>
