<svg width="40" height="40" viewBox="0 0 40 40" fill="none" xmlns="http://www.w3.org/2000/svg">
<path d="M38.3412 8.50809C39.5127 4.30413 39.5144 1.27793 39.5139 1.15118C39.5127 0.836724 39.3833 0.536292 39.1557 0.31931C38.9281 0.10225 38.6221 -0.0124824 38.3077 0.001079C28.8286 0.399908 19.8358 4.89744 14.0672 12.4602L7.37321 12.1348C7.04774 12.1197 6.73036 12.2415 6.49981 12.472L0.338544 18.6334C0.0394222 18.9325 -0.0723823 19.3712 0.0470505 19.7769C0.166483 20.1828 0.498121 20.4909 0.911513 20.5803L8.04551 22.1229C7.07116 23.9578 6.46013 25.2462 6.39017 25.3946C6.18228 25.8357 6.27358 26.3598 6.6184 26.7046L7.13412 27.2204C6.57533 27.4158 6.05098 27.7365 5.60507 28.1823C5.25764 28.5297 4.97893 28.9321 4.77621 29.379L0.192219 37.7085C-0.054583 38.157 0.0230099 38.7145 0.383081 39.0785C0.605765 39.3037 0.903577 39.4216 1.20524 39.4216C1.39125 39.4216 1.5788 39.3767 1.75093 39.2845L10.1757 34.7681C10.3066 34.7084 10.4332 34.6427 10.5529 34.5721C10.5652 34.5651 10.5773 34.5578 10.5893 34.5504C10.8709 34.3802 11.1319 34.1758 11.3652 33.9425C11.811 33.4967 12.1316 32.9723 12.3272 32.4135L12.9078 32.9941C13.2701 33.3568 13.8273 33.4352 14.2732 33.1944C14.4249 33.1126 15.6439 32.4541 17.3633 31.473L18.8971 38.5659C19.0778 39.449 20.2109 39.7854 20.8441 39.1388L27.0054 32.9776C27.236 32.747 27.3584 32.4299 27.3426 32.1042L27.0175 25.4174C28.2146 24.5518 29.2549 23.7173 29.9934 22.9787C34.4515 18.4363 36.8005 13.7725 38.3412 8.50809ZM36.0928 7.96502C35.8466 8.84019 35.531 9.81407 35.1291 10.8521L28.6311 4.35406C31.336 3.29773 34.1841 2.63947 37.1331 2.39174C37.0277 3.59393 36.7622 5.5856 36.0928 7.96502ZM3.472 18.769L7.77235 14.4686L12.4634 14.6966C11.2503 16.4874 10.1361 18.3486 9.20192 20.0079L3.472 18.769ZM10.5479 27.3651L8.83515 25.6524C9.11038 25.0958 9.5361 24.252 10.0767 23.2345L12.3777 25.5354L10.5479 27.3651ZM9.73067 32.308C9.62695 32.4116 9.51098 32.5021 9.38585 32.5767C9.38385 32.5779 9.38177 32.5791 9.37976 32.5803C9.3239 32.6133 9.26272 32.6445 9.19799 32.6731C9.17126 32.685 9.14498 32.6978 9.11917 32.7117L4.10006 35.4023L6.82475 30.4515C6.8417 30.4207 6.85726 30.3891 6.87129 30.3569C6.95959 30.1548 7.08349 29.9732 7.2396 29.8171C7.92638 29.1303 9.04381 29.1304 9.73059 29.8171C10.4174 30.5038 10.4174 31.6212 9.73067 32.308ZM13.9298 30.7471L12.1824 28.9997L14.0122 27.1699L16.2727 29.4303C15.2964 29.9884 14.4789 30.444 13.9298 30.7471ZM25.0087 31.705L20.7084 36.0053L19.4649 30.2548C21.1441 29.2658 23.0241 28.1187 24.778 26.9598L25.0087 31.705ZM28.3588 21.3442C26.3998 23.3032 21.9277 26.117 18.3415 28.2302L15.6467 25.5354L19.4448 21.7373C19.8962 21.2859 19.8962 20.5542 19.4448 20.1028C18.9935 19.6514 18.2616 19.6514 17.8103 20.1028L14.0121 23.9009L11.2327 21.1214C11.3342 20.9412 11.4377 20.7589 11.5433 20.5744C13.9321 16.4025 16.2351 13.157 18.2034 11.1888C20.6054 8.78679 23.3469 6.82532 26.3592 5.35121L34.1416 13.1336C32.8666 15.7907 31.0227 18.6802 28.3588 21.3442Z" fill="#4759F9"/>
<path d="M28.2816 11.2657C25.2661 8.23695 20.0134 10.4116 20.031 14.6833C19.9773 17.2811 22.2662 19.5701 24.8641 19.5163C29.1355 19.534 31.3109 14.2808 28.2816 11.2657ZM26.6471 16.4663C25.7084 17.4444 24.0197 17.4445 23.0811 16.4662C22.1029 15.5277 22.1029 13.8388 23.0811 12.9003C24.0642 11.9172 25.6639 11.9173 26.6471 12.9003C27.6302 13.8834 27.6302 15.4831 26.6471 16.4663Z" fill="#4759F9"/>
</svg>
