<svg width="58" height="64" viewBox="0 0 58 64" fill="none" xmlns="http://www.w3.org/2000/svg">
<path fill-rule="evenodd" clip-rule="evenodd" d="M13.4262 15.2849C13.4262 6.83601 20.301 0 28.7653 0C37.2295 0 44.1043 6.83601 44.1043 15.2849C44.1043 16.3414 43.2479 17.1978 42.1915 17.1978C41.135 17.1978 40.2786 16.3414 40.2786 15.2849C40.2786 8.96345 35.1312 3.82571 28.7653 3.82571C22.3993 3.82571 17.2519 8.96345 17.2519 15.2849V26.7441H48.9046C53.6612 26.7441 57.5305 30.5867 57.5305 35.343V55.4011C57.5305 60.1574 53.6612 64 48.9046 64H8.62595C3.86927 64 0 60.1574 0 55.4011V35.343C0 30.5867 3.86927 26.7441 8.62595 26.7441H13.4262V15.2849ZM8.62595 30.5698C5.96756 30.5698 3.82571 32.7141 3.82571 35.343V55.4011C3.82571 58.03 5.96756 60.1743 8.62595 60.1743H48.9046C51.563 60.1743 53.7048 58.03 53.7048 55.4011V35.343C53.7048 32.7141 51.563 30.5698 48.9046 30.5698H8.62595ZM28.7653 40.1162C29.8217 40.1162 30.6781 40.9726 30.6781 42.029V48.7151C30.6781 49.7715 29.8217 50.6279 28.7653 50.6279C27.7088 50.6279 26.8524 49.7715 26.8524 48.7151V42.029C26.8524 40.9726 27.7088 40.1162 28.7653 40.1162Z" fill="#3CD097"/>
</svg>
