<svg width="128" height="128" viewBox="0 0 128 128" fill="none" xmlns="http://www.w3.org/2000/svg">
<g id="IconBox-02">
<rect width="128" height="128" rx="64" fill="#D1F1E6"/>
<path id="Icon (Stroke)" fill-rule="evenodd" clip-rule="evenodd" d="M48.4262 47.2849C48.4262 38.836 55.301 32 63.7653 32C72.2295 32 79.1043 38.836 79.1043 47.2849C79.1043 48.3414 78.2479 49.1978 77.1915 49.1978C76.135 49.1978 75.2786 48.3414 75.2786 47.2849C75.2786 40.9635 70.1312 35.8257 63.7653 35.8257C57.3993 35.8257 52.2519 40.9635 52.2519 47.2849V58.7441H83.9046C88.6612 58.7441 92.5305 62.5867 92.5305 67.343V87.4011C92.5305 92.1574 88.6612 96 83.9046 96H43.626C38.8693 96 35 92.1574 35 87.4011V67.343C35 62.5867 38.8693 58.7441 43.626 58.7441H48.4262V47.2849ZM43.626 62.5698C40.9676 62.5698 38.8257 64.7141 38.8257 67.343V87.4011C38.8257 90.03 40.9676 92.1743 43.626 92.1743H83.9046C86.563 92.1743 88.7048 90.03 88.7048 87.4011V67.343C88.7048 64.7141 86.563 62.5698 83.9046 62.5698H43.626ZM63.7653 72.1162C64.8217 72.1162 65.6781 72.9726 65.6781 74.029V80.7151C65.6781 81.7715 64.8217 82.6279 63.7653 82.6279C62.7088 82.6279 61.8524 81.7715 61.8524 80.7151V74.029C61.8524 72.9726 62.7088 72.1162 63.7653 72.1162Z" fill="#3CD097"/>
</g>
</svg>
