<svg width="61" height="64" viewBox="0 0 61 64" fill="none" xmlns="http://www.w3.org/2000/svg">
<path fill-rule="evenodd" clip-rule="evenodd" d="M10.8976 7.44441C5.95796 9.79325 3.69877 12.6762 3.69877 15.2497C3.69877 17.8231 5.95796 20.7061 10.8976 23.0549C15.6985 25.3378 22.4609 26.8005 30.0305 26.8005C37.6001 26.8005 44.3625 25.3378 49.1634 23.0549C54.103 20.7061 56.3622 17.8231 56.3622 15.2497C56.3622 12.6762 54.103 9.79325 49.1634 7.44441C44.3625 5.16156 37.6001 3.69877 30.0305 3.69877C22.4609 3.69877 15.6985 5.16156 10.8976 7.44441ZM56.3622 22.7255C54.817 24.1514 52.8838 25.3814 50.7517 26.3953C45.3531 28.9624 38.0249 30.4993 30.0305 30.4993C22.0361 30.4993 14.7079 28.9624 9.30926 26.3953C7.17718 25.3814 5.24399 24.1514 3.69877 22.7255V32C3.69877 34.5735 5.95796 37.4564 10.8976 39.8052C15.6985 42.0881 22.4609 43.5509 30.0305 43.5509C37.6001 43.5509 44.3625 42.0881 49.1634 39.8052C54.103 37.4564 56.3622 34.5735 56.3622 32V22.7255ZM60.061 15.2497C60.061 10.4223 56.0116 6.60516 50.7517 4.10405C45.3531 1.53696 38.0249 0 30.0305 0C22.0361 0 14.7079 1.53696 9.30926 4.10405C4.04937 6.60516 0 10.4223 0 15.2497V48.7503C0 53.5777 4.04937 57.3948 9.30926 59.896C14.7079 62.463 22.0361 64 30.0305 64C38.0249 64 45.3531 62.463 50.7517 59.896C56.0116 57.3948 60.061 53.5777 60.061 48.7503V15.2497ZM56.3622 39.4758C54.817 40.9017 52.8838 42.1318 50.7517 43.1456C45.3531 45.7127 38.0249 47.2497 30.0305 47.2497C22.0361 47.2497 14.7079 45.7127 9.30926 43.1456C7.17718 42.1318 5.24399 40.9017 3.69877 39.4758V48.7503C3.69877 51.3238 5.95796 54.2067 10.8976 56.5556C15.6985 58.8384 22.4609 60.3012 30.0305 60.3012C37.6001 60.3012 44.3625 58.8384 49.1634 56.5556C54.103 54.2067 56.3622 51.3238 56.3622 48.7503V39.4758Z" fill="#FEAE37"/>
</svg>
