<svg width="128" height="128" viewBox="0 0 128 128" fill="none" xmlns="http://www.w3.org/2000/svg">
<g id="IconBox-03">
<rect width="128" height="128" rx="64" fill="#FFE4BE"/>
<path id="Icon (Stroke)" fill-rule="evenodd" clip-rule="evenodd" d="M44.8976 39.4444C39.958 41.7933 37.6988 44.6762 37.6988 47.2497C37.6988 49.8231 39.958 52.7061 44.8976 55.0549C49.6985 57.3378 56.4609 58.8005 64.0305 58.8005C71.6001 58.8005 78.3625 57.3378 83.1634 55.0549C88.103 52.7061 90.3622 49.8231 90.3622 47.2497C90.3622 44.6762 88.103 41.7933 83.1634 39.4444C78.3625 37.1616 71.6001 35.6988 64.0305 35.6988C56.4609 35.6988 49.6985 37.1616 44.8976 39.4444ZM90.3622 54.7255C88.817 56.1514 86.8838 57.3814 84.7517 58.3953C79.3531 60.9624 72.0249 62.4993 64.0305 62.4993C56.0361 62.4993 48.7079 60.9624 43.3093 58.3953C41.1772 57.3814 39.244 56.1514 37.6988 54.7255V64C37.6988 66.5735 39.958 69.4564 44.8976 71.8052C49.6985 74.0881 56.4609 75.5509 64.0305 75.5509C71.6001 75.5509 78.3625 74.0881 83.1634 71.8052C88.103 69.4564 90.3622 66.5735 90.3622 64V54.7255ZM94.061 47.2497C94.061 42.4223 90.0116 38.6052 84.7517 36.1041C79.3531 33.537 72.0249 32 64.0305 32C56.0361 32 48.7079 33.537 43.3093 36.1041C38.0494 38.6052 34 42.4223 34 47.2497V80.7503C34 85.5777 38.0494 89.3948 43.3093 91.896C48.7079 94.463 56.0361 96 64.0305 96C72.0249 96 79.3531 94.463 84.7517 91.896C90.0116 89.3948 94.061 85.5777 94.061 80.7503V47.2497ZM90.3622 71.4758C88.817 72.9017 86.8838 74.1318 84.7517 75.1456C79.3531 77.7127 72.0249 79.2497 64.0305 79.2497C56.0361 79.2497 48.7079 77.7127 43.3093 75.1456C41.1772 74.1318 39.244 72.9017 37.6988 71.4758V80.7503C37.6988 83.3238 39.958 86.2067 44.8976 88.5556C49.6985 90.8384 56.4609 92.3012 64.0305 92.3012C71.6001 92.3012 78.3625 90.8384 83.1634 88.5556C88.103 86.2067 90.3622 83.3238 90.3622 80.7503V71.4758Z" fill="#FEAE37"/>
</g>
</svg>
