<svg width="24" height="25" viewBox="0 0 24 25" fill="none" xmlns="http://www.w3.org/2000/svg">
<g id="twitter-6 1">
<path id="Vector" d="M7.54776 22.3232C16.6048 22.3232 21.5578 14.6294 21.5578 7.95764C21.5578 7.73914 21.5534 7.52164 21.5438 7.30504C22.5075 6.59 23.3393 5.70466 24 4.69054C23.1177 5.09274 22.1683 5.36344 21.1723 5.48549C22.1889 4.86044 22.9694 3.87159 23.3376 2.69289C22.371 3.28084 21.3136 3.69531 20.2109 3.91844C19.3123 2.93704 18.0331 2.32324 16.6166 2.32324C13.8974 2.32324 11.6923 4.58434 11.6923 7.37149C11.6923 7.76774 11.7356 8.15304 11.8201 8.52274C7.72766 8.31159 4.09878 6.30249 1.67015 3.24754C1.23273 4.01806 1.00265 4.89377 1.00341 5.78524C1.00341 7.53694 1.87268 9.08329 3.19463 9.98799C2.41268 9.9635 1.6479 9.74693 0.964585 9.35649C0.963854 9.37769 0.963854 9.39834 0.963854 9.42099C0.963854 11.8661 2.66112 13.9077 4.91419 14.3703C4.49104 14.4885 4.05439 14.5482 3.6158 14.5479C3.29907 14.5479 2.99039 14.516 2.69039 14.4569C3.31727 16.463 5.13502 17.9229 7.29019 17.9637C5.60488 19.3181 3.4819 20.1249 1.17454 20.1249C0.782024 20.1252 0.389833 20.1019 0 20.0549C2.17922 21.4872 4.76659 22.3232 7.54776 22.3232Z" fill="#FEAE37"/>
</g>
</svg>
