<svg width="48" height="48" viewBox="0 0 48 48" fill="none" xmlns="http://www.w3.org/2000/svg">
<circle cx="24.1879" cy="23.7568" r="23.7568" fill="#FEAE37"/>
<path d="M27.2058 23.7333C27.2058 20.2552 28.0916 17.7397 29.8631 16.187C31.6812 14.6343 34.5949 13.8579 38.6041 13.8579H40.026V22.6619C40.026 29.8821 37.9592 34.5093 33.8257 36.5434C32.3805 37.2576 30.6478 37.6148 28.6277 37.6148H27.2058V23.7333ZM21.7048 37.6148C17.8044 37.6148 14.8985 36.2561 12.9872 33.5388C11.2156 31.0234 10.3299 27.3978 10.3299 22.6619V13.8579H11.7518C15.761 13.8579 18.6746 14.6343 20.4928 16.187C22.2643 17.7397 23.15 20.2552 23.15 23.7333V37.6148H21.7048Z" fill="white"/>
</svg>
